<?xml version="1.0" encoding="UTF-8" standalone="no"?>
<!-- Created with Inkscape (http://www.inkscape.org/) -->

<svg
   width="320"
   height="320"
   viewBox="0 0 84.666662 84.666669"
   version="1.1"
   id="svg1"
   inkscape:version="1.3.2 (091e20e, 2023-11-25, custom)"
   sodipodi:docname="logo.svg"
   xml:space="preserve"
   xmlns:inkscape="http://www.inkscape.org/namespaces/inkscape"
   xmlns:sodipodi="http://sodipodi.sourceforge.net/DTD/sodipodi-0.dtd"
   xmlns="http://www.w3.org/2000/svg"
   xmlns:svg="http://www.w3.org/2000/svg"><sodipodi:namedview
     id="namedview1"
     pagecolor="#586e82"
     bordercolor="#666666"
     borderopacity="1.0"
     inkscape:showpageshadow="2"
     inkscape:pageopacity="0.0"
     inkscape:pagecheckerboard="0"
     inkscape:deskcolor="#d1d1d1"
     inkscape:document-units="px"
     inkscape:zoom="1.4349764"
     inkscape:cx="170.73452"
     inkscape:cy="223.00018"
     inkscape:window-width="1443"
     inkscape:window-height="1158"
     inkscape:window-x="1864"
     inkscape:window-y="156"
     inkscape:window-maximized="0"
     inkscape:current-layer="g1" /><defs
     id="defs1" /><g
     inkscape:label="Layer 1"
     inkscape:groupmode="layer"
     id="layer1"><g
       style="color:#000000;fill:none;stroke-width:0.77497;stroke-dasharray:none"
       id="g1"
       transform="matrix(3.4083468,0,0,3.4198848,1.4331711,-0.41584939)"><path
         d="M 13,21 H 4 C 2.89543,21 2,20.1046 2,19 V 5 C 2,3.89543 2.89543,3 4,3 h 16 c 1.1046,0 2,0.89543 2,2 v 8"
         stroke="#ffffff"
         stroke-width="0.116245"
         stroke-linecap="round"
         id="path1"
         style="stroke-width:0.77497;stroke-dasharray:none" /><path
         d="m 22,17.2798 c 0,0.6014 -0.2375,1.179 -0.6617,1.6063 -0.9764,0.984 -1.9233,2.01 -2.9362,2.9582 -0.2321,0.2142 -0.6004,0.2064 -0.8226,-0.0175 l -2.918,-2.9407 c -0.882,-0.8889 -0.882,-2.3238 0,-3.2127 0.8907,-0.8976 2.3417,-0.8976 3.2323,0 l 0.1061,0.1069 0.106,-0.1069 C 18.533,15.2429 19.1146,15 19.7221,15 c 0.6076,0 1.1892,0.2428 1.6162,0.6734 C 21.7625,16.1007 22,16.6784 22,17.2798 Z"
         stroke="#ffffff"
         stroke-width="0.116245"
         stroke-linejoin="round"
         id="path2"
         style="stroke-width:0.77497;stroke-dasharray:none;fill:#ffffff;fill-opacity:1" /><path
         d="M 2,7 H 22"
         stroke="#ffffff"
         stroke-width="0.116245"
         stroke-linecap="round"
         stroke-linejoin="round"
         id="path3"
         style="stroke-width:0.77497;stroke-dasharray:none" /><path
         d="M 5,5.01 5.01,4.99889"
         stroke="#ffffff"
         stroke-width="0.116245"
         stroke-linecap="round"
         stroke-linejoin="round"
         id="path4"
         style="stroke-width:0.77497;stroke-dasharray:none" /><path
         d="M 8,5.01 8.01,4.99889"
         stroke="#ffffff"
         stroke-width="0.116245"
         stroke-linecap="round"
         stroke-linejoin="round"
         id="path5"
         style="stroke-width:0.77497;stroke-dasharray:none" /><path
         d="M 11,5.01 11.01,4.99889"
         stroke="#ffffff"
         stroke-width="0.116245"
         stroke-linecap="round"
         stroke-linejoin="round"
         id="path6"
         style="stroke-width:0.77497;stroke-dasharray:none" /></g></g></svg>
