<?xml version="1.0" encoding="UTF-8" standalone="no"?>
<!-- Created with Inkscape (http://www.inkscape.org/) -->

<svg
   width="320"
   height="320"
   viewBox="0 0 84.666662 84.666669"
   version="1.1"
   id="svg1"
   inkscape:version="1.3.2 (091e20e, 2023-11-25, custom)"
   sodipodi:docname="logo.svg"
   xml:space="preserve"
   inkscape:export-filename="logo-small.png"
   inkscape:export-xdpi="38.400002"
   inkscape:export-ydpi="38.400002"
   xmlns:inkscape="http://www.inkscape.org/namespaces/inkscape"
   xmlns:sodipodi="http://sodipodi.sourceforge.net/DTD/sodipodi-0.dtd"
   xmlns="http://www.w3.org/2000/svg"
   xmlns:svg="http://www.w3.org/2000/svg"><sodipodi:namedview
     id="namedview1"
     pagecolor="#586e82"
     bordercolor="#666666"
     borderopacity="1.0"
     inkscape:showpageshadow="2"
     inkscape:pageopacity="0.0"
     inkscape:pagecheckerboard="0"
     inkscape:deskcolor="#d1d1d1"
     inkscape:document-units="px"
     inkscape:zoom="1.4349764"
     inkscape:cx="171.08295"
     inkscape:cy="223.00018"
     inkscape:window-width="1443"
     inkscape:window-height="1158"
     inkscape:window-x="1864"
     inkscape:window-y="156"
     inkscape:window-maximized="0"
     inkscape:current-layer="g1"
     inkscape:export-bgcolor="#586e82ff" /><defs
     id="defs1" /><g
     inkscape:label="Layer 1"
     inkscape:groupmode="layer"
     id="layer1"><g
       style="color:#000000;fill:none;stroke-width:0.77497;stroke-dasharray:none"
       id="g1"
       transform="matrix(3.4083468,0,0,3.4198848,1.4331711,-0.41584939)"><g
         id="g2"
         transform="translate(-0.19639404,-0.09492358)"><path
           d="M 13.091602,20.512019 H 5.0347285 c -0.9888201,0 -1.7904164,-0.801397 -1.7904164,-1.790033 V 6.1917538 c 0,-0.9886085 0.8015963,-1.7900332 1.7904164,-1.7900332 H 19.35806 c 0.988847,0 1.790416,0.8014247 1.790416,1.7900332 v 7.1601332"
           stroke="#ffffff"
           stroke-width="0.116245"
           stroke-linecap="round"
           id="path1"
           style="stroke-width:0.77497;stroke-dasharray:none" /><path
           d="m 21.148476,17.182379 c 0,0.538263 -0.212612,1.055224 -0.592359,1.437665 -0.874081,0.880696 -1.721754,1.798983 -2.628511,2.647638 -0.207777,0.191713 -0.537483,0.184731 -0.736398,-0.01566 l -2.612217,-2.631975 c -0.789574,-0.79558 -0.789574,-2.07984 0,-2.87542 0.797362,-0.803367 2.096309,-0.803367 2.893581,0 l 0.09498,0.09568 0.09489,-0.09568 c 0.382343,-0.385305 0.902996,-0.602704 1.446835,-0.602704 0.543929,0 1.064582,0.21731 1.446836,0.602704 0.379747,0.382441 0.592359,0.899492 0.592359,1.437755 z"
           stroke="#ffffff"
           stroke-width="0.116245"
           stroke-linejoin="round"
           id="path2"
           style="fill:#ffffff;fill-opacity:1;stroke-width:0.77497;stroke-dasharray:none" /><path
           d="M 3.2443121,7.9817871 H 21.148476"
           stroke="#ffffff"
           stroke-width="0.116245"
           stroke-linecap="round"
           stroke-linejoin="round"
           id="path3"
           style="stroke-width:0.77497;stroke-dasharray:none" /><path
           d="m 5.9299367,6.200704 0.00895,-0.00994"
           stroke="#ffffff"
           stroke-width="0.116245"
           stroke-linecap="round"
           stroke-linejoin="round"
           id="path4"
           style="stroke-width:0.77497;stroke-dasharray:none" /><path
           d="m 8.6155613,6.200704 0.00895,-0.00994"
           stroke="#ffffff"
           stroke-width="0.116245"
           stroke-linecap="round"
           stroke-linejoin="round"
           id="path5"
           style="stroke-width:0.77497;stroke-dasharray:none" /><path
           d="m 11.301186,6.200704 0.009,-0.00994"
           stroke="#ffffff"
           stroke-width="0.116245"
           stroke-linecap="round"
           stroke-linejoin="round"
           id="path6"
           style="stroke-width:0.77497;stroke-dasharray:none" /></g></g></g></svg>
